<svg xmlns="http://www.w3.org/2000/svg" viewBox="0 0 360 360" fill="none" shape-rendering="auto"><desc>"Avatar Illustration System" by "Micah Lanier", licensed under "CC BY 4.0". / Remix of the original. - Created with dicebear.com</desc><metadata xmlns:dc="http://purl.org/dc/elements/1.1/" xmlns:cc="http://creativecommons.org/ns#" xmlns:rdf="http://www.w3.org/1999/02/22-rdf-syntax-ns#"><rdf:RDF><cc:Work><dc:title>Avatar Illustration System</dc:title><dc:creator><cc:Agent rdf:about="https://dribbble.com/micahlanier"><dc:title>Micah Lanier</dc:title></cc:Agent></dc:creator><dc:source>https://www.figma.com/community/file/829741575478342595</dc:source><cc:license rdf:resource="https://creativecommons.org/licenses/by/4.0/" /></cc:Work></rdf:RDF></metadata><mask id="viewboxMask"><rect width="360" height="360" rx="0" ry="0" x="0" y="0" fill="#fff" /></mask><g mask="url(#viewboxMask)"><g transform="translate(80 23)"><path d="M154 319.5c-14.4-20-25.67-58.67-27-78L58.5 212 30 319.5h124Z" fill="#f9c9b6" stroke="#000" stroke-width="4"/><path d="M130.37 263.69c-2.1.2-4.22.31-6.37.31-30.78 0-56.05-21.57-58.76-49.1L127 241.5c.38 5.48 1.55 13.32 3.37 22.19Z" fill="#000" style="mix-blend-mode:multiply"/><path d="M181.94 151.37v.01l.1.4.14.65A75.72 75.72 0 0 1 34.93 187.7l-.2-.74L18 117.13l-.06-.29A75.72 75.72 0 0 1 165.2 81.55l.05.21.02.08.05.2.05.2v.01l16.4 68.44.08.34.08.34Z" fill="#f9c9b6" stroke="#000" stroke-width="4"/><g transform="translate(34 102.3)"></g></g><g transform="translate(170 183)"><path d="M36.37 56.66c12.1-2.2 18.75-15.38 16.42-28.23C50.47 15.6 39.63 5.57 27.52 7.76 15.4 9.95 8.77 23.13 11.09 35.98c2.33 12.85 13.17 22.87 25.28 20.68Z" fill="#000000"/><path d="M17.14 42.66c2.78-5.21 8.14-9.25 14.8-10.45 6.66-1.2 13.1.7 17.53 4.6-1.09 8.3-6.37 15-13.74 16.33-7.37 1.33-14.67-3.1-18.6-10.47Z" fill="#FC909F"/></g><g transform="translate(110 102)"><path d="M99 10.21c5.67-2.66 19-5.1 27 6.5M23.58 35.52c2.07-5.9 9.68-17.12 23.56-14.7" stroke="#000000" stroke-width="4" stroke-linecap="round"/></g><g transform="translate(49 11)"><g stroke="#000"><path d="m105.84 88.82 1.88.3v.08l-.04.16-.12.52c-.12.45-.3 1.09-.6 1.9a41.7 41.7 0 0 1-3.4 6.92c-3.17 5.32-8.7 12.66-18.31 21.6 29.97.74 55-8.92 72.82-19.04a156.35 156.35 0 0 0 21.71-14.87 118.43 118.43 0 0 0 7.5-6.7l.1-.1.01-.01 2.29-2.38.93 3.16-1.84.54 1.84-.54v.05l.05.13.15.52a817.06 817.06 0 0 1 2.69 9.28c1.75 6.14 4.14 14.58 6.66 23.77 5.03 18.35 10.6 39.81 12.7 51.97 3.49 20.32-1.91 35.74-5.1 44.87-.63 1.77-1.17 3.3-1.54 4.6.06.04.12.1.22.16.6.42 1.65.91 3.18 1.4 3.02.96 7.32 1.74 11.92 2.19 4.6.44 9.38.53 13.34.14 1.98-.2 3.7-.5 5.08-.92a6.85 6.85 0 0 0 2.58-1.27c.02-.08.03-.29-.02-.68-.1-.78-.4-1.87-.93-3.32-.8-2.15-1.97-4.8-3.35-7.88l-1.46-3.3c-3.93-8.94-8.65-20.56-9.68-32.4-1.15-13.16 1.45-24.42 3.79-34.54l.11-.48c2.39-10.34 4.38-19.32 2.34-28.42-3.1-13.8-7.32-25.3-13.8-33.57-6.42-8.17-15.13-13.27-27.5-14.21l-1.28-.1-.4-1.22c-5.7-17.57-13.38-29.05-23.18-36.17-9.8-7.12-21.96-10.05-36.94-10.05-27.7 0-57.5 10.52-79.88 28.72-22.35 18.18-37.14 43.9-35.2 74.33 2.13 33.6-.3 59.06-5.8 77.72-5 17-12.59 28.46-21.68 35.14 1.19.61 2.78 1.39 4.77 2.27 5.02 2.24 12.59 5.2 22.67 8.03 19.34 5.43 47.95 10.38 85.71 8.89-8.32-7.15-16.72-15.83-23.37-25-7.63-10.53-13.14-21.94-13.3-32.58-.19-12.62.67-45.67.93-52.5.62-15.9 10.82-28.15 20.54-36.3a96.6 96.6 0 0 1 18.96-12.34l.2-.1.13-.06.1-.05h.02v-.01l.8 1.74Zm0 0 1.88.3.56-3.5-3.23 1.46.79 1.74Zm100.23 126.57.03.04-.03-.04Z" fill="#ffffff" stroke-width="3.82"/><path d="M191 58c.5 4.5-.3 13.5-1.5 19.5" stroke-width="4"/></g></g><g transform="translate(142 119)"><circle cx="15.24" cy="20.24" r="12" transform="rotate(-6.28 15.24 20.24)" fill="#d2eff3"/><ellipse cx="16.53" cy="29.4" rx="9" ry="13.5" transform="rotate(-6.78 16.53 29.4)" fill="#000000"/><circle cx="79.02" cy="11.61" r="12" transform="rotate(-6.28 79.02 11.61)" fill="#d2eff3"/><ellipse cx="80.53" cy="19.4" rx="9" ry="13.5" transform="rotate(-6.28 80.53 19.4)" fill="#000000"/><g transform="translate(-40 -8)"></g></g><g transform="rotate(-8 1149.44 -1186.92)"><path d="M16.5 3c0 14 7 25 7 25S20 34 10 32" stroke="#000" stroke-width="4"/></g><g transform="translate(84 154)"><path d="M30.5 6.18A23.78 23.78 0 0 0 23.08 5c-10.5 0-19 6.5-18 18.5 1.04 12.5 8.5 17 19 17A19.6 19.6 0 0 0 31 39.23" stroke="#000" stroke-width="8"/><path d="M31.5 39.04a19.38 19.38 0 0 1-7.42 1.46c-10.5 0-17.96-4.5-19-17-1-12 7.5-18.5 18-18.5 3.14 0 6.19.6 8.92 1.73l-.5 32.3Z" fill="#f9c9b6"/><path d="M27.5 13.5c-4-1.83-12.8-2.8-16 8" stroke="#000" stroke-width="4"/><path d="M17 14c2.17 1.83 6.3 7.5 5.5 15.5" stroke="#000" stroke-width="4"/><g transform="translate(3 35)"></g></g><g transform="translate(53 272)"><g stroke="#000" stroke-width="4"><path d="M126.77 67.58 128 66l-1.23 1.58 1.72 1.34 1.19-1.83v-.02l.05-.06.04-.05a28.57 28.57 0 0 1 .8-1.18 112.35 112.35 0 0 1 11.5-14.05c3.67-3.78 7.83-7.4 12.13-9.93 4.31-2.53 8.58-3.84 12.53-3.3C209.17 44.2 240.4 63 260.67 91h-273.3c16.3-29.34 39.49-48.02 77.07-56.59 1.6-.36 3.78-.25 6.5.38 2.7.63 5.77 1.73 9.09 3.19 6.62 2.9 14.02 7.16 20.97 11.56a355.78 355.78 0 0 1 25.24 17.63l.4.3.1.08.02.02h.01Z" fill="#9287ff"/><path d="m52.61 37.08 5.17-19.23c.2-.78 1.22-1 1.76-.4C74.4 33.7 93.16 33.08 99.4 32.33c.84-.1 1.5.82 1.1 1.58L87.34 58.86c-.2.38-.62.6-1.04.5-3.95-.82-23.62-5.63-33.57-21.5a1 1 0 0 1-.12-.78ZM183.2 36.98 171.61 17.5c-.4-.66-1.37-.65-1.79 0-5.73 8.83-15.63 12.9-19.09 14.1-.62.22-.9.96-.57 1.53l13.5 22.81c.2.34.59.53.97.42 2.13-.61 9.46-3.67 18.54-18.34a1 1 0 0 0 .01-1.04Z" fill="#9287ff"/><path d="m52.61 37.08 5.17-19.23c.2-.78 1.22-1 1.76-.4C74.4 33.7 93.16 33.08 99.4 32.33c.84-.1 1.5.82 1.1 1.58L87.34 58.86c-.2.38-.62.6-1.04.5-3.95-.82-23.62-5.63-33.57-21.5a1 1 0 0 1-.12-.78ZM183.2 36.98 171.61 17.5c-.4-.66-1.37-.65-1.79 0-5.73 8.83-15.63 12.9-19.09 14.1-.62.22-.9.96-.57 1.53l13.5 22.81c.2.34.59.53.97.42 2.13-.61 9.46-3.67 18.54-18.34a1 1 0 0 0 .01-1.04Z" fill="#fff" fill-opacity=".75"/><path d="m109.5 54.5-9-21.5-7 15 16 6.5ZM141 53.5l9-21.5 7 15-16 6.5ZM70.5 14l-12 3 10 6.5 2-9.5ZM160 14l11 3-7 6.5-4-9.5Z" fill="#000" stroke-linejoin="round"/></g></g></g></svg>