<svg width="118" height="33" viewBox="0 0 118 33" fill="none" xmlns="http://www.w3.org/2000/svg">
<path d="M42.8521 21H40.1934L37.4248 10.4531H40.3911L42.1416 17.9385L43.6943 10.4531H46.3604L48.0596 18.1289L49.9712 10.4531H51.7656L48.6968 21H46.0308L44.5439 14.2617L42.8521 21ZM56.1748 21H53.2671V10.4531H58.9653C59.4585 10.4531 59.9297 10.519 60.3789 10.6509C60.833 10.7827 61.2334 10.9829 61.5801 11.2515C61.9268 11.5151 62.2026 11.8496 62.4077 12.2549C62.6177 12.6553 62.7227 13.1265 62.7227 13.6685C62.7227 14.0103 62.6738 14.3325 62.5762 14.6353C62.4785 14.9331 62.3418 15.2065 62.166 15.4556C61.9951 15.7046 61.7925 15.9292 61.5581 16.1294C61.3237 16.3296 61.0674 16.498 60.7891 16.6348C60.5107 16.7715 60.2153 16.8765 59.9028 16.9497C59.5952 17.0229 59.2827 17.0596 58.9653 17.0596H56.1748V21ZM59.7783 13.6685C59.7783 12.9897 59.605 12.4575 59.2583 12.0718C58.9165 11.6812 58.3989 11.4858 57.7056 11.4858H56.1748V16.0635H57.7056C58.0767 16.0635 58.3916 16.0049 58.6504 15.8877C58.9141 15.7656 59.1289 15.5972 59.2949 15.3823C59.4609 15.1675 59.583 14.916 59.6611 14.6279C59.7393 14.335 59.7783 14.0151 59.7783 13.6685ZM68.9995 16.3931H64.0776V15.0454H68.9995V16.3931ZM72.4565 21H71.1089V10.4531H72.9985L79.4072 17.6968V10.4531H80.7476V21H78.8579L72.4565 13.7637V21ZM91.7485 16.752C91.7485 17.1914 91.6899 17.604 91.5728 17.9897C91.4556 18.3755 91.292 18.7319 91.082 19.0591C90.877 19.3862 90.6279 19.6816 90.335 19.9453C90.042 20.2041 89.7197 20.4238 89.3682 20.6045C89.0215 20.7852 88.6479 20.9243 88.2476 21.022C87.8521 21.1196 87.4443 21.1685 87.0244 21.1685C86.6045 21.1685 86.1968 21.1196 85.8013 21.022C85.4058 20.9243 85.0322 20.7852 84.6807 20.6045C84.334 20.4238 84.0142 20.2041 83.7212 19.9453C83.4282 19.6816 83.1768 19.3862 82.9668 19.0591C82.7617 18.7319 82.6006 18.3755 82.4834 17.9897C82.3662 17.5991 82.3076 17.1865 82.3076 16.752C82.3076 16.3174 82.3662 15.9072 82.4834 15.5215C82.6006 15.1309 82.7617 14.772 82.9668 14.4448C83.1768 14.1177 83.4282 13.8247 83.7212 13.5659C84.0142 13.3022 84.334 13.0801 84.6807 12.8994C85.0322 12.7188 85.4058 12.5796 85.8013 12.4819C86.1968 12.3843 86.6045 12.3354 87.0244 12.3354C87.4443 12.3354 87.8521 12.3843 88.2476 12.4819C88.6479 12.5796 89.0215 12.7188 89.3682 12.8994C89.7197 13.0801 90.042 13.3022 90.335 13.5659C90.6279 13.8247 90.877 14.1177 91.082 14.4448C91.292 14.772 91.4556 15.1309 91.5728 15.5215C91.6899 15.9072 91.7485 16.3174 91.7485 16.752ZM89.229 16.752C89.229 16.5176 89.2144 16.271 89.1851 16.0122C89.1606 15.7485 89.1167 15.4922 89.0532 15.2432C88.9897 14.9893 88.9019 14.7476 88.7896 14.5181C88.6821 14.2837 88.5479 14.0811 88.3867 13.9102C88.2256 13.7344 88.0327 13.5952 87.8081 13.4927C87.5835 13.3853 87.3223 13.3315 87.0244 13.3315C86.7412 13.3315 86.4897 13.3853 86.27 13.4927C86.0503 13.6001 85.8574 13.7441 85.6914 13.9248C85.5303 14.1006 85.3936 14.3057 85.2812 14.54C85.1738 14.7744 85.0859 15.0186 85.0176 15.2725C84.9492 15.5215 84.9004 15.7754 84.8711 16.0342C84.8418 16.2881 84.8271 16.5273 84.8271 16.752C84.8271 16.9766 84.8418 17.2183 84.8711 17.4771C84.9004 17.731 84.9492 17.9849 85.0176 18.2388C85.0859 18.4927 85.1738 18.7368 85.2812 18.9712C85.3936 19.2007 85.5303 19.4058 85.6914 19.5864C85.8574 19.7622 86.0503 19.9038 86.27 20.0112C86.4897 20.1187 86.7412 20.1724 87.0244 20.1724C87.3174 20.1724 87.5762 20.1211 87.8008 20.0186C88.0254 19.9111 88.2183 19.7695 88.3794 19.5938C88.5454 19.418 88.6821 19.2153 88.7896 18.9858C88.897 18.7563 88.9824 18.5146 89.0459 18.2607C89.1143 18.0068 89.1606 17.7505 89.1851 17.4917C89.2144 17.2329 89.229 16.9863 89.229 16.752ZM96.2822 21H93.7993V13.522H92.2612V12.5405H93.7993V9.42773H96.2822V12.5405H98.8457V13.522H96.2822V21ZM101.651 16.9863C101.954 17.0547 102.256 17.1084 102.559 17.1475C102.862 17.1865 103.167 17.2061 103.475 17.2061C103.797 17.2061 104.095 17.1768 104.368 17.1182C104.646 17.0547 104.886 16.9521 105.086 16.8105C105.291 16.6641 105.452 16.4712 105.569 16.2319C105.687 15.9927 105.745 15.6948 105.745 15.3384C105.745 15.0503 105.706 14.7866 105.628 14.5474C105.55 14.3081 105.433 14.103 105.276 13.9321C105.125 13.7612 104.937 13.6294 104.712 13.5366C104.488 13.439 104.227 13.3901 103.929 13.3901C103.65 13.3901 103.399 13.4414 103.174 13.5439C102.955 13.6465 102.759 13.7856 102.588 13.9614C102.422 14.1323 102.278 14.3325 102.156 14.562C102.039 14.7915 101.941 15.0308 101.863 15.2798C101.785 15.5288 101.729 15.7803 101.695 16.0342C101.661 16.2881 101.644 16.5273 101.644 16.752C101.644 16.791 101.644 16.8301 101.644 16.8691C101.644 16.9082 101.646 16.9473 101.651 16.9863ZM107.752 15.3164C107.752 15.6631 107.696 15.9731 107.583 16.2466C107.471 16.5151 107.317 16.752 107.122 16.957C106.932 17.1621 106.709 17.3354 106.456 17.4771C106.202 17.6187 105.931 17.7358 105.643 17.8286C105.354 17.9165 105.057 17.98 104.749 18.019C104.446 18.0581 104.151 18.0776 103.863 18.0776C103.497 18.0776 103.135 18.0532 102.779 18.0044C102.422 17.9507 102.071 17.8677 101.724 17.7554C101.778 18.0776 101.863 18.3853 101.98 18.6782C102.098 18.9663 102.254 19.2202 102.449 19.4399C102.645 19.6548 102.884 19.8257 103.167 19.9526C103.455 20.0796 103.794 20.1431 104.185 20.1431C104.444 20.1431 104.69 20.104 104.925 20.0259C105.159 19.9478 105.374 19.8379 105.569 19.6963C105.765 19.5547 105.936 19.3862 106.082 19.1909C106.233 18.9956 106.355 18.7783 106.448 18.5391L107.518 18.9346C107.356 19.3203 107.134 19.6548 106.851 19.938C106.573 20.2163 106.255 20.4482 105.899 20.6338C105.547 20.8145 105.171 20.9487 104.771 21.0366C104.375 21.1245 103.982 21.1685 103.592 21.1685C102.947 21.1685 102.352 21.061 101.805 20.8462C101.258 20.6265 100.787 20.3213 100.391 19.9307C99.9956 19.54 99.6855 19.0737 99.4609 18.5317C99.2363 17.9897 99.124 17.3965 99.124 16.752C99.124 16.1074 99.2363 15.5142 99.4609 14.9722C99.6855 14.4302 99.9956 13.9639 100.391 13.5732C100.787 13.1826 101.258 12.8799 101.805 12.665C102.352 12.4453 102.947 12.3354 103.592 12.3354C103.904 12.3354 104.224 12.3574 104.551 12.4014C104.878 12.4453 105.196 12.5161 105.503 12.6138C105.811 12.7065 106.102 12.8286 106.375 12.98C106.648 13.1313 106.885 13.3193 107.085 13.5439C107.291 13.7637 107.452 14.02 107.569 14.313C107.691 14.606 107.752 14.9404 107.752 15.3164ZM116.578 18.2974C116.578 18.6685 116.524 18.998 116.417 19.2861C116.309 19.5742 116.163 19.8257 115.977 20.0405C115.792 20.2505 115.572 20.4287 115.318 20.5752C115.064 20.7168 114.791 20.8315 114.498 20.9194C114.209 21.0073 113.907 21.0708 113.589 21.1099C113.272 21.1489 112.957 21.1685 112.645 21.1685C112.225 21.1685 111.854 21.1416 111.531 21.0879C111.209 21.0342 110.901 20.9487 110.608 20.8315C110.315 20.7095 110.022 20.5532 109.729 20.3628C109.441 20.1724 109.119 19.9404 108.763 19.667L110.206 18.4878C110.337 18.7368 110.511 18.9639 110.726 19.1689C110.945 19.3691 111.172 19.5425 111.407 19.689C111.641 19.8354 111.868 19.9478 112.088 20.0259C112.308 20.104 112.486 20.1431 112.623 20.1431C112.735 20.1431 112.862 20.1406 113.003 20.1357C113.145 20.126 113.289 20.1113 113.436 20.0918C113.582 20.0674 113.726 20.0332 113.868 19.9893C114.009 19.9453 114.134 19.8867 114.241 19.8135C114.354 19.7354 114.441 19.6401 114.505 19.5278C114.573 19.4106 114.607 19.2715 114.607 19.1104C114.607 18.9443 114.563 18.8003 114.476 18.6782C114.393 18.5513 114.283 18.4414 114.146 18.3486C114.009 18.2559 113.853 18.1777 113.677 18.1143C113.501 18.0508 113.323 17.9946 113.143 17.9458C112.967 17.897 112.796 17.8555 112.63 17.8213C112.464 17.7822 112.32 17.7456 112.198 17.7114C111.973 17.6479 111.736 17.5845 111.487 17.521C111.238 17.4526 110.992 17.377 110.748 17.2939C110.503 17.2061 110.269 17.1035 110.044 16.9863C109.825 16.8691 109.629 16.73 109.458 16.5688C109.292 16.4028 109.158 16.21 109.056 15.9902C108.958 15.7656 108.909 15.5044 108.909 15.2065C108.909 14.6597 109.017 14.2031 109.231 13.8369C109.451 13.4658 109.739 13.1704 110.096 12.9507C110.452 12.7261 110.857 12.5674 111.312 12.4746C111.766 12.3818 112.227 12.3354 112.696 12.3354C113.018 12.3354 113.357 12.3696 113.714 12.438C114.07 12.5015 114.417 12.5991 114.754 12.731C115.091 12.8579 115.406 13.0142 115.699 13.1997C115.992 13.3853 116.236 13.5977 116.431 13.8369L114.988 15.0234C114.881 14.7305 114.739 14.479 114.563 14.269C114.393 14.0591 114.205 13.8882 114 13.7563C113.799 13.6196 113.592 13.5195 113.377 13.4561C113.167 13.3926 112.972 13.3608 112.791 13.3608C112.615 13.3608 112.417 13.3682 112.198 13.3828C111.978 13.3975 111.771 13.439 111.575 13.5073C111.385 13.5757 111.221 13.6807 111.084 13.8223C110.953 13.959 110.887 14.1494 110.887 14.3936C110.887 14.5693 110.926 14.7207 111.004 14.8477C111.087 14.9697 111.194 15.0771 111.326 15.1699C111.458 15.2578 111.607 15.3335 111.773 15.397C111.944 15.4556 112.117 15.5093 112.293 15.5581C112.469 15.6021 112.64 15.6411 112.806 15.6753C112.972 15.7095 113.121 15.7461 113.252 15.7852C113.477 15.8486 113.714 15.9146 113.963 15.9829C114.217 16.0464 114.466 16.1221 114.71 16.21C114.954 16.293 115.188 16.3931 115.413 16.5103C115.643 16.6226 115.843 16.7617 116.014 16.9277C116.185 17.0938 116.321 17.2891 116.424 17.5137C116.526 17.7334 116.578 17.9946 116.578 18.2974Z" fill="#EC7160"/>
<circle cx="16" cy="16" r="16" fill="#EC7160"/>
<path d="M15.4805 8.21484C15.6055 8.75391 15.7305 9.34375 15.8555 9.98438C15.9805 10.625 16.1016 11.293 16.2188 11.9883C16.3438 12.6758 16.4648 13.3789 16.582 14.0977C16.707 14.8086 16.8281 15.5117 16.9453 16.207C17.0703 16.8945 17.1875 17.5625 17.2969 18.2109C17.4141 18.8516 17.5312 19.4453 17.6484 19.9922C18.4375 18.4375 19.1953 16.9648 19.9219 15.5742C20.6562 14.1836 21.3398 12.9375 21.9727 11.8359C22.6055 10.7266 23.1797 9.78516 23.6953 9.01172C24.2109 8.23047 24.6562 7.67188 25.0312 7.33594C25.1953 7.17969 25.3672 7.07031 25.5469 7.00781C25.7266 6.94531 25.9023 6.91406 26.0742 6.91406C26.3242 6.91406 26.5352 6.97656 26.707 7.10156C26.8867 7.22656 26.9766 7.38672 26.9766 7.58203C26.9766 7.69922 26.957 7.79687 26.918 7.875C26.8789 7.95313 26.8164 8.03906 26.7305 8.13281C26.4102 8.5 26.1094 8.83984 25.8281 9.15234C25.5469 9.45703 25.2695 9.78125 24.9961 10.125C24.7305 10.4609 24.4609 10.8398 24.1875 11.2617C23.9219 11.6836 23.6445 12.1875 23.3555 12.7734C23.0039 13.4219 22.6523 14.0898 22.3008 14.7773C21.9492 15.457 21.6094 16.1367 21.2812 16.8164C20.9531 17.4883 20.6367 18.1406 20.332 18.7734C20.0352 19.4062 19.7617 19.9922 19.5117 20.5312C19.2617 21.0625 19.0352 21.5391 18.832 21.9609C18.6289 22.375 18.4609 22.6992 18.3281 22.9336C18.1016 23.418 17.8398 23.7773 17.543 24.0117C17.2539 24.2461 16.9883 24.3672 16.7461 24.375H16.6641C16.5078 24.3672 16.3555 24.3359 16.207 24.2812C16.0586 24.2266 15.9219 24.1445 15.7969 24.0352C15.6719 23.9258 15.5625 23.7891 15.4688 23.625C15.3828 23.4531 15.3242 23.2539 15.293 23.0273C15.168 22.5352 15.0547 22.0547 14.9531 21.5859C14.8594 21.1094 14.7695 20.625 14.6836 20.1328C14.5977 19.6328 14.5078 19.1133 14.4141 18.5742C14.3281 18.0273 14.2344 17.4336 14.1328 16.793C14.0312 16.1523 13.9141 15.4531 13.7812 14.6953C13.6562 13.9375 13.5078 13.0977 13.3359 12.1758C13.1016 12.957 12.8164 13.8164 12.4805 14.7539C12.1445 15.6836 11.7734 16.625 11.3672 17.5781C10.9609 18.5234 10.5234 19.4414 10.0547 20.332C9.58594 21.2148 9.09375 22 8.57812 22.6875C8.0625 23.375 7.53125 23.9258 6.98438 24.3398C6.44531 24.7539 5.90234 24.9609 5.35547 24.9609C5.26172 24.9609 5.15234 24.9375 5.02734 24.8906C4.90234 24.8516 4.78125 24.7891 4.66406 24.7031C4.55469 24.625 4.46094 24.5273 4.38281 24.4102C4.30469 24.293 4.26562 24.1641 4.26562 24.0234C4.26562 23.9141 4.28516 23.8164 4.32422 23.7305C4.37109 23.6367 4.43359 23.5273 4.51172 23.4023C4.61328 23.2383 4.77344 23.0977 4.99219 22.9805C5.21094 22.8555 5.46094 22.7188 5.74219 22.5703C6.03125 22.4219 6.34375 22.25 6.67969 22.0547C7.01562 21.8516 7.35156 21.5859 7.6875 21.2578C7.875 21.0781 8.09766 20.7578 8.35547 20.2969C8.61328 19.8281 8.89062 19.2773 9.1875 18.6445C9.49219 18.0039 9.80469 17.3047 10.125 16.5469C10.4531 15.7812 10.7734 15.0117 11.0859 14.2383C11.3984 13.4648 11.6953 12.7109 11.9766 11.9766C12.2578 11.2344 12.5078 10.5703 12.7266 9.98438C12.9531 9.39062 13.1367 8.89844 13.2773 8.50781C13.418 8.10938 13.5039 7.86719 13.5352 7.78125C13.6133 7.54688 13.7383 7.375 13.9102 7.26562C14.0898 7.15625 14.2812 7.09766 14.4844 7.08984C14.4766 7.08984 14.4688 7.09375 14.4609 7.10156C14.4844 7.10156 14.5078 7.10156 14.5312 7.10156C14.5625 7.09375 14.5898 7.08984 14.6133 7.08984C14.7852 7.08984 14.9531 7.17578 15.1172 7.34766C15.2891 7.51172 15.4102 7.80078 15.4805 8.21484Z" fill="white"/>
</svg>
